<svg id="MedTrainerLogo-RGB_Full_Color" data-name="MedTrainerLogo-RGB_Full Color" xmlns="http://www.w3.org/2000/svg" width="268.892" height="34.556" viewBox="0 0 268.892 34.556">
  <g id="Group_25255" data-name="Group 25255">
    <path id="Path_47937" data-name="Path 47937" d="M7.509,0H0V33.845H5.225V6.038l6.4,13.382h5.082Zm27.3,0L29.492,11.063h4.882L36.84,6.038V33.845h5.225V0Z" fill="#1b1464"/>
    <path id="Path_47938" data-name="Path 47938" d="M146.209,45.752c-5.428,0-9.081-2.994-9.589-7.817h23.188a17.444,17.444,0,0,0-1.215-7.155c-1.93-4.668-6.752-7.46-12.738-7.46a14.766,14.766,0,0,0-9.165,2.9,11.9,11.9,0,0,0-2.091,2.063,13.183,13.183,0,0,0-2.749,8.335c0,7.817,5.583,13.042,13.9,13.042,6.647,0,11.112-2.791,13.6-8.475h-5.33C152.755,44.228,150.117,45.752,146.209,45.752Zm8.577-11.673H136.771a10.535,10.535,0,0,1,1.254-2.938,8.238,8.238,0,0,1,1.8-2.031,9.288,9.288,0,0,1,5.978-1.93,8.686,8.686,0,0,1,8.983,6.9Z" transform="translate(-85.673 -15.153)" fill="#1b1464"/>
    <path id="Path_47939" data-name="Path 47939" d="M241.727,0V12.177c-3.3-2.942-6.087-4.059-9.894-4.059A12.8,12.8,0,0,0,218.64,21.311,12.8,12.8,0,0,0,231.833,34.5c3.807,0,6.546-1.117,9.894-4.007v3.348h4.924V0ZM232.95,30.343c-5.481,0-9.235-3.653-9.235-9.032s3.7-9.032,9.284-9.032,9.186,3.653,9.186,9.183C242.185,26.69,238.378,30.343,232.95,30.343Z" transform="translate(-142.068)" fill="#1b1464"/>
    <path id="Path_47940" data-name="Path 47940" d="M303.25,0V4.717h12.941V33.845h5.225V4.717h13.042V0Z" transform="translate(-197.046)" fill="#4ea0ca"/>
    <path id="Path_47941" data-name="Path 47941" d="M399.323,23.32c-3.5,0-5.274.914-8.269,4.364v-3.7H386.13V49h4.924V35.3a5.8,5.8,0,0,1,1.776-4.77,8.4,8.4,0,0,1,6.241-2.487,11.959,11.959,0,0,1,3.3.455V23.576a18.741,18.741,0,0,0-3.047-.256Z" transform="translate(-250.899 -15.153)" fill="#4ea0ca"/>
    <path id="Path_47942" data-name="Path 47942" d="M462.361,45.7c-1.674.053-2.283-.813-2.283-3.247V31.34c0-3.047-.711-4.77-2.434-5.94-2.08-1.418-5.075-2.08-9.186-2.08-5.176,0-8.829,1.32-10.857,3.908a8.625,8.625,0,0,0-1.727,5.022h4.921c.357-3.7,2.487-5.071,7.866-5.071,4.567,0,6.749,1.215,6.749,3.9a2.425,2.425,0,0,1-1.979,2.487c-1.268.406-2.028.508-6.493.963-5.229.56-6.346.813-8.171,1.625a6.582,6.582,0,0,0-3.807,6.09c0,4.616,3.705,7.46,9.743,7.46A14.177,14.177,0,0,0,455.409,45.6c.967,2.791,2.385,3.754,5.481,3.754a7.109,7.109,0,0,0,2.588-.406V45.6A9.688,9.688,0,0,1,462.361,45.7Zm-6.952-7.155c0,2.385-.354,3.348-1.776,4.721-1.776,1.674-4.262,2.536-7.561,2.536-4.007,0-6.038-1.32-6.038-3.856,0-2.283,1.369-3.148,5.786-3.6a46.83,46.83,0,0,0,9.589-1.825Z" transform="translate(-282.628 -15.153)" fill="#4ea0ca"/>
    <path id="Path_47943" data-name="Path 47943" d="M521.17,0V5.225h4.924V0Zm0,8.829V33.845h4.924V8.829Z" transform="translate(-338.646)" fill="#4ea0ca"/>
    <path id="Path_47944" data-name="Path 47944" d="M571.852,25.908a11.565,11.565,0,0,0-7.764-2.588c-4.059,0-6.5,1.068-9.743,4.213V23.982H549.42V49h4.924V34.432c0-3.8,3.958-6.948,8.777-6.948a6.887,6.887,0,0,1,4.465,1.369c1.32,1.065,1.727,2.08,1.727,4.567V49h4.924V33.063C574.237,29.361,573.575,27.432,571.852,25.908Z" transform="translate(-357.002 -15.153)" fill="#4ea0ca"/>
    <path id="Path_47945" data-name="Path 47945" d="M645.213,45.752c-5.432,0-9.085-2.994-9.593-7.817h23.192a17.44,17.44,0,0,0-1.219-7.155c-1.93-4.668-6.749-7.46-12.737-7.46-8.269,0-14.005,5.432-14.005,13.294s5.583,13.042,13.9,13.042c6.647,0,11.112-2.791,13.6-8.475h-5.327C651.758,44.228,649.117,45.752,645.213,45.752Zm-.406-18.572a8.679,8.679,0,0,1,8.98,6.9H635.774A8.736,8.736,0,0,1,644.806,27.179Z" transform="translate(-409.914 -15.153)" fill="#4ea0ca"/>
    <path id="Path_47946" data-name="Path 47946" d="M734.6,23.32c-3.5,0-5.278.914-8.272,4.364v-3.7H721.41V49h4.921V35.3a5.788,5.788,0,0,1,1.779-4.77,8.4,8.4,0,0,1,6.241-2.487,11.976,11.976,0,0,1,3.3.455V23.576a18.771,18.771,0,0,0-3.047-.256Z" transform="translate(-468.758 -15.153)" fill="#4ea0ca"/>
  </g>
  <path id="Path_47947" data-name="Path 47947" d="M57.679,45.65l-1.685,3.432L53.578,54l-3.642,7.425a3.728,3.728,0,0,1-3.341,2.08,3.712,3.712,0,0,1-3.131-1.716,3.162,3.162,0,0,1-.224-.4L39.706,54l-.056-.119H44.7l.056.119,2.031,4.287.021-.042L48.847,54l2.364-4.921,1.65-3.432h4.819Z" transform="translate(-25.764 -29.662)" fill="#4ea0ca"/>
</svg>
